<svg width="40" height="40" viewBox="0 0 40 40" fill="none" xmlns="http://www.w3.org/2000/svg">
<g clip-path="url(#clip0_601_874)">
<path d="M30.8879 28.0235C25.7588 26.155 24.1191 24.5778 24.1191 21.2007C24.1191 19.174 25.7998 17.8605 26.3726 16.1236C26.9455 14.3866 27.2769 12.3302 27.5524 10.8343C27.8279 9.33834 27.9374 8.75975 28.0872 7.16587C28.2703 5.17666 26.9387 0.0413208 19.8183 0.0413208C12.7 0.0413208 11.3641 5.17666 11.5514 7.16587C11.7012 8.75975 11.8112 9.33841 12.0861 10.8343C12.361 12.3302 12.6892 14.3865 13.2617 16.1236C13.8342 17.8607 15.5172 19.174 15.5172 21.2007C15.5172 24.5778 13.8776 26.155 8.74849 28.0235C3.60076 29.8962 0.259033 31.7429 0.259033 33.0475V39.1598H39.3775V33.0475C39.3775 31.745 36.0337 29.8983 30.8879 28.0235Z" fill="black"/>
</g>
<defs>
<clipPath id="clip0_601_874">
<rect width="39.1185" height="39.1185" fill="white" transform="translate(0.259033 0.0413208)"/>
</clipPath>
</defs>
</svg>
