<svg width="49" height="49" viewBox="0 0 49 49" fill="none" xmlns="http://www.w3.org/2000/svg">
<path d="M25.7252 9.80005C27.3496 9.80005 28.9076 10.4454 30.0562 11.594C31.2049 12.7427 31.8502 14.3006 31.8502 15.925V33.075C31.8505 34.487 31.3629 35.8558 30.47 36.9496C29.5771 38.0434 28.3337 38.7951 26.9502 39.0775V30.625C26.9502 28.3508 26.0468 26.1697 24.4386 24.5616C22.8305 22.9535 20.6494 22.05 18.3752 22.05H8.5752C7.25955 22.05 6.01495 22.344 4.9002 22.8757V15.925C4.9002 14.3006 5.54551 12.7427 6.69417 11.594C7.84283 10.4454 9.40074 9.80005 11.0252 9.80005H25.7252ZM34.3002 29.6009V19.4285L41.0867 13.7617C41.3548 13.5384 41.681 13.396 42.027 13.3513C42.3731 13.3065 42.7248 13.3612 43.0409 13.509C43.357 13.6568 43.6245 13.8915 43.8121 14.1857C43.9997 14.4799 44.0996 14.8215 44.1002 15.1704V33.957C44.0996 34.3076 43.9988 34.6507 43.8095 34.9459C43.6203 35.241 43.3506 35.4758 43.0322 35.6227C42.7138 35.7695 42.3601 35.8221 42.0128 35.7745C41.6655 35.7268 41.339 35.5807 41.072 35.3535L34.3002 29.6009ZM2.4502 30.625C2.4502 29.0006 3.09551 27.4427 4.24417 26.294C5.39283 25.1454 6.95074 24.5 8.5752 24.5H18.3752C19.9996 24.5 21.5576 25.1454 22.7062 26.294C23.8549 27.4427 24.5002 29.0006 24.5002 30.625V40.425C24.5002 42.0495 23.8549 43.6074 22.7062 44.7561C21.5576 45.9047 19.9996 46.55 18.3752 46.55H8.5752C6.95074 46.55 5.39283 45.9047 4.24417 44.7561C3.09551 43.6074 2.4502 42.0495 2.4502 40.425V30.625ZM12.2992 30.7084C12.1405 30.5988 11.9559 30.5328 11.7637 30.5169C11.5716 30.5009 11.3786 30.5357 11.204 30.6177C11.0609 30.6807 10.9312 30.7705 10.8218 30.8823C10.7077 30.9973 10.6176 31.1339 10.5566 31.284C10.4956 31.4342 10.465 31.5949 10.4666 31.7569V39.2907C10.4647 39.4532 10.4951 39.6144 10.5561 39.7649C10.6171 39.9155 10.7074 40.0525 10.8218 40.1678C10.9355 40.2779 11.0662 40.3689 11.2089 40.4373C11.4575 40.5512 11.7396 40.5687 12.0003 40.4863C12.1135 40.4498 12.2208 40.397 12.3188 40.3295L17.944 36.4903C18.1151 36.3775 18.2529 36.221 18.3433 36.0371C18.4357 35.8515 18.4831 35.6469 18.4818 35.4396C18.4805 35.2324 18.4306 35.0284 18.336 34.844C18.2384 34.6631 18.0968 34.5098 17.9244 34.398L12.2992 30.7084Z" fill="white"/>
</svg>
