<svg width="45" height="45" viewBox="0 0 45 45" fill="none" xmlns="http://www.w3.org/2000/svg">
<path d="M9.375 10.3125C8.00748 10.3125 6.69597 10.8557 5.72898 11.8227C4.762 12.7897 4.21875 14.1012 4.21875 15.4688V29.5312C4.21875 30.8988 4.762 32.2103 5.72898 33.1773C6.69597 34.1443 8.00748 34.6875 9.375 34.6875H25.3125C26.68 34.6875 27.9915 34.1443 28.9585 33.1773C29.9255 32.2103 30.4688 30.8988 30.4688 29.5312V26.5425L36.8794 32.2519C38.3888 33.5963 40.7812 32.5238 40.7812 30.5006V13.8094C40.7812 11.7844 38.3888 10.7138 36.8794 12.0581L30.4688 17.7675V15.4688C30.4688 14.1012 29.9255 12.7897 28.9585 11.8227C27.9915 10.8557 26.68 10.3125 25.3125 10.3125H9.375Z" fill="white"/>
</svg>
