<svg width="20" height="21" viewBox="0 0 20 21" fill="none" xmlns="http://www.w3.org/2000/svg">
<path d="M3 5.5C2.46957 5.5 1.96086 5.71071 1.58579 6.08579C1.21071 6.46086 1 6.96957 1 7.5V17.5C1 18.0304 1.21071 18.5391 1.58579 18.9142C1.96086 19.2893 2.46957 19.5 3 19.5H17C17.5304 19.5 18.0391 19.2893 18.4142 18.9142C18.7893 18.5391 19 18.0304 19 17.5V7.5C19 6.96957 18.7893 6.46086 18.4142 6.08579C18.0391 5.71071 17.5304 5.5 17 5.5H3ZM3 16.5L6.5 12L9 15L12.5 10.5L17 16.5H3ZM16 2.5C16.5304 2.5 17.0391 2.71071 17.4142 3.08579C17.7893 3.46086 18 3.96957 18 4.5H2C2 3.96957 2.21071 3.46086 2.58579 3.08579C2.96086 2.71071 3.46957 2.5 4 2.5H16Z" fill="black"/>
</svg>
