<svg width="22" height="22" viewBox="0 0 22 22" fill="none" xmlns="http://www.w3.org/2000/svg">
<path d="M10.9997 1.83329C16.0624 1.83329 20.1663 5.93721 20.1663 11C20.1663 16.0627 16.0624 20.1666 10.9997 20.1666C5.93692 20.1666 1.83301 16.0627 1.83301 11H3.66634C3.66654 12.7558 4.29673 14.4533 5.44237 15.7839C6.58801 17.1145 8.17304 17.9899 9.90937 18.2509C11.6457 18.512 13.4181 18.1414 14.9043 17.2065C16.3906 16.2716 17.4921 14.8345 18.0086 13.1563C18.5251 11.4781 18.4223 9.67036 17.7189 8.06154C17.0156 6.45273 15.7583 5.14968 14.1757 4.38923C12.5931 3.62878 10.7901 3.46143 9.09456 3.91757C7.399 4.37372 5.92339 5.4231 4.93592 6.87496H7.33301V8.70829H1.83301L1.83301 3.20829H3.66634V5.49996C4.51969 4.36097 5.62678 3.43655 6.89973 2.80007C8.17269 2.1636 9.57647 1.83258 10.9997 1.83329Z" fill="white"/>
</svg>
