<svg width="37" height="25" viewBox="0 0 37 25" fill="none" xmlns="http://www.w3.org/2000/svg">
<path d="M5.15637 0C3.78885 0 2.47734 0.543246 1.51035 1.51023C0.543368 2.47721 0.00012207 3.78873 0.00012207 5.15625V19.2188C0.00012207 20.5863 0.543368 21.8978 1.51035 22.8648C2.47734 23.8318 3.78885 24.375 5.15637 24.375H21.0939C22.4614 24.375 23.7729 23.8318 24.7399 22.8648C25.7069 21.8978 26.2501 20.5863 26.2501 19.2188V16.23L32.6607 21.9394C34.1701 23.2838 36.5626 22.2113 36.5626 20.1881V3.49687C36.5626 1.47187 34.1701 0.40125 32.6607 1.74563L26.2501 7.455V5.15625C26.2501 3.78873 25.7069 2.47721 24.7399 1.51023C23.7729 0.543246 22.4614 0 21.0939 0H5.15637Z" fill="black"/>
</svg>
