<svg width="14" height="12" viewBox="0 0 14 12" fill="none" xmlns="http://www.w3.org/2000/svg">
<path d="M7.70136 3.67485V1.62994C7.70136 1.45212 7.772 1.28158 7.89774 1.15585C8.02347 1.03011 8.19401 0.959473 8.37183 0.959473C8.54772 0.960213 8.71627 1.03004 8.84115 1.15391L13.5344 5.84716C13.5972 5.90949 13.6471 5.98364 13.6812 6.06534C13.7152 6.14705 13.7327 6.23468 13.7327 6.32319C13.7327 6.4117 13.7152 6.49933 13.6812 6.58103C13.6471 6.66274 13.5972 6.73689 13.5344 6.79922L8.84115 11.4925C8.74703 11.5847 8.6278 11.6472 8.49837 11.6721C8.36894 11.697 8.23505 11.6831 8.11343 11.6323C7.99182 11.5816 7.88787 11.496 7.81458 11.3865C7.74129 11.277 7.70191 11.1482 7.70136 11.0164V8.938H7.13147C6.07219 8.9222 5.02216 9.13711 4.05426 9.5678C3.08636 9.99849 2.22378 10.6347 1.52639 11.4321C1.44234 11.544 1.32539 11.6268 1.19193 11.6689C1.05847 11.711 0.915192 11.7102 0.782169 11.6668C0.646798 11.6211 0.52956 11.5334 0.447548 11.4164C0.365536 11.2994 0.323039 11.1593 0.326253 11.0164C0.326253 4.9018 5.74361 3.85588 7.70136 3.67485ZM7.13147 7.58366C7.57989 7.58279 8.02786 7.61191 8.4724 7.67082C8.63112 7.6949 8.77594 7.77514 8.88052 7.89695C8.9851 8.01875 9.0425 8.17404 9.04229 8.33458V9.40062L12.113 6.32319L9.04229 3.24576V4.3118C9.04229 4.48961 8.97165 4.66015 8.84592 4.78589C8.72018 4.91162 8.54965 4.98226 8.37183 4.98226C7.7617 4.98226 2.93436 5.11635 1.88844 9.29335C3.40657 8.17405 5.24534 7.57445 7.13147 7.58366Z" fill="black"/>
</svg>
